# xmcd
#
# Track frame offsets: 
#        150
#        22340
#        41060
#        61370
#        80207
#        106280
#        127050
#        146760
#        166692
#        188577
#
# Disc length: 2801 seconds
#
# Revision: 2
# Processed by: cddbd v1.5.2PL0 Copyright (c) Steve Scherf et al.
# Submitted via: ExactAudioCopyFreeDBPlugin 1.0
#
DISCID=8f0aef0a
DTITLE=何方 - 停看听
DYEAR=1900
DGENRE=pop
TTITLE0=停看听
TTITLE1=也许我不是最美丽
TTITLE2=最美的话
TTITLE3=爱是我无法逃避的伤心
TTITLE4=没有你
TTITLE5=芳心为爱
TTITLE6=别说我爱的太容易
TTITLE7=伤心的心
TTITLE8=浪漫灾情
TTITLE9=美丽的句点
EXTD=
EXTT0=
EXTT1=
EXTT2=
EXTT3=
EXTT4=
EXTT5=
EXTT6=
EXTT7=
EXTT8=
EXTT9=
PLAYORDER=
